<?xml version="1.0" standalone="no"?>
<!DOCTYPE svg PUBLIC "-//W3C//DTD SVG 20010904//EN"
 "http://www.w3.org/TR/2001/REC-SVG-20010904/DTD/svg10.dtd">
<svg version="1.0" xmlns="http://www.w3.org/2000/svg"
 width="16.000000pt" height="16.000000pt" viewBox="0 0 16.000000 16.000000"
 preserveAspectRatio="xMidYMid meet">
<metadata>
Created by potrace 1.11, written by Peter Selinger 2001-2013
</metadata>
<g transform="translate(0.000000,16.000000) scale(0.005714,-0.005714)"
fill="#000000" stroke="none">
<path d="M1295 2712 c-263 -153 -519 -300 -605 -349 -52 -30 -100 -59 -107
-66 -9 -9 19 -30 127 -92 l140 -80 0 -167 0 -167 43 23 c23 12 145 82 270 154
126 73 233 132 238 132 5 0 111 -59 236 -132 126 -72 247 -142 270 -155 l42
-24 0 88 c0 48 0 124 0 168 l1 81 113 64 c61 35 125 72 140 83 l29 19 -44 25
c-24 14 -56 33 -73 43 -88 50 -212 122 -225 130 -55 34 -471 271 -482 275 -7
3 -58 -21 -113 -53z"/>
<path d="M355 2169 l-141 -81 1 -164 c0 -179 -2 -171 65 -206 14 -7 57 -32 96
-55 139 -81 110 -82 269 11 l140 82 2 166 1 167 -139 81 c-76 44 -142 80 -147
80 -4 0 -70 -37 -147 -81z"/>
<path d="M2215 2207 c-38 -23 -100 -60 -138 -80 l-67 -38 1 -167 2 -167 144
-82 144 -82 62 37 c34 21 97 58 140 82 42 24 78 46 78 49 1 3 2 79 3 168 l2
161 -111 63 c-60 35 -122 71 -137 81 -36 25 -43 23 -123 -25z"/>
<path d="M1120 1875 l-265 -153 -2 -316 -2 -315 75 -45 c41 -25 76 -46 78 -46
2 0 92 -51 200 -114 l196 -114 183 106 c100 58 223 129 274 159 l92 53 -2 316
-2 315 -265 154 c-146 85 -272 154 -280 154 -8 0 -134 -69 -280 -154z"/>
<path d="M215 1201 c0 -264 2 -481 5 -484 3 -2 30 -18 60 -35 30 -16 123 -69
205 -117 83 -48 168 -98 190 -110 22 -13 114 -66 205 -119 l165 -95 3 162 2
163 53 30 c28 17 94 55 145 85 70 41 89 56 78 64 -7 6 -131 77 -274 159 l-260
149 0 309 c0 170 -2 312 -5 314 -3 3 -68 -31 -145 -76 l-140 -81 -130 75 c-72
42 -136 78 -144 81 -11 4 -13 -79 -13 -474z"/>
<path d="M2009 1663 c-1 -10 -1 -151 0 -313 l0 -295 -37 -21 c-107 -60 -498
-287 -504 -293 -5 -4 18 -22 50 -40 148 -87 179 -105 202 -117 25 -14 25 -15
30 -179 l5 -165 65 38 c72 43 382 222 445 258 22 12 103 59 180 103 l140 81 0
480 c0 424 -2 480 -15 475 -8 -4 -72 -40 -143 -81 l-127 -75 -141 81 c-77 44
-142 80 -144 80 -3 0 -5 -8 -6 -17z"/>
<path d="M1259 615 l-144 -82 0 -162 c0 -89 2 -166 5 -170 3 -5 68 -45 145
-89 116 -67 143 -78 155 -68 8 7 69 43 135 81 66 37 123 72 127 78 3 6 6 82 5
170 l-2 159 -141 82 -141 83 -144 -82z"/>
</g>
</svg>
